<?xml version="1.0" encoding="utf-8"?>
<!-- Generator: Adobe Illustrator 16.0.0, SVG Export Plug-In . SVG Version: 6.00 Build 0)  -->
<!DOCTYPE svg PUBLIC "-//W3C//DTD SVG 1.1//EN" "http://www.w3.org/Graphics/SVG/1.1/DTD/svg11.dtd">
<svg version="1.1" id="Capa_1" xmlns="http://www.w3.org/2000/svg" xmlns:xlink="http://www.w3.org/1999/xlink" x="0px" y="0px"
	 width="500px" height="130px" viewBox="0 0 500 130" enable-background="new 0 0 500 130" xml:space="preserve">
<g>
	<g>
		<path stroke="#000000" stroke-miterlimit="10" d="M74.83,72.249H54.618c0.024,2.347,0.498,4.416,1.419,6.208
			c0.921,1.791,2.146,3.141,3.673,4.05c1.525,0.907,3.209,1.362,5.052,1.362c1.236,0,2.366-0.145,3.388-0.435
			c1.021-0.291,2.012-0.744,2.971-1.363c0.96-0.618,1.842-1.281,2.649-1.987s1.855-1.665,3.142-2.877
			c0.53-0.454,1.287-0.681,2.271-0.681c1.06,0,1.917,0.29,2.573,0.87c0.656,0.581,0.984,1.4,0.984,2.461
			c0,0.933-0.365,2.024-1.098,3.273s-1.835,2.448-3.312,3.596c-1.477,1.148-3.331,2.102-5.564,2.857
			c-2.232,0.757-4.8,1.136-7.701,1.136c-6.638,0-11.798-1.892-15.48-5.677c-3.685-3.785-5.527-8.92-5.527-15.405
			c0-3.053,0.455-5.886,1.363-8.497s2.232-4.852,3.974-6.719c1.741-1.866,3.886-3.299,6.435-4.296
			c2.548-0.997,5.375-1.495,8.479-1.495c4.037,0,7.5,0.852,10.389,2.555c2.891,1.704,5.055,3.905,6.492,6.605
			c1.438,2.7,2.158,5.449,2.158,8.251c0,2.599-0.746,4.283-2.234,5.053C79.623,71.865,77.529,72.249,74.83,72.249z M54.618,66.382
			h18.735c-0.253-3.531-1.206-6.175-2.858-7.929s-3.828-2.631-6.528-2.631c-2.573,0-4.688,0.89-6.34,2.669
			C55.975,60.27,54.972,62.9,54.618,66.382z"/>
		<path stroke="#000000" stroke-miterlimit="10" d="M101.438,54.422v1.249c1.817-2.396,3.804-4.157,5.962-5.28
			c2.157-1.122,4.637-1.684,7.438-1.684c2.725,0,5.16,0.593,7.306,1.778c2.145,1.187,3.746,2.864,4.807,5.034
			c0.681,1.262,1.122,2.624,1.324,4.088s0.304,3.331,0.304,5.602v19.228c0,2.069-0.474,3.634-1.42,4.693s-2.177,1.59-3.69,1.59
			c-1.54,0-2.789-0.543-3.748-1.627c-0.958-1.085-1.438-2.637-1.438-4.656V67.216c0-3.407-0.474-6.013-1.419-7.816
			c-0.947-1.804-2.833-2.706-5.659-2.706c-1.843,0-3.52,0.548-5.033,1.646c-1.515,1.099-2.625,2.605-3.332,4.523
			c-0.504,1.539-0.756,4.416-0.756,8.63v12.944c0,2.095-0.486,3.666-1.458,4.712c-0.971,1.048-2.227,1.571-3.766,1.571
			c-1.49,0-2.713-0.543-3.672-1.627c-0.959-1.085-1.438-2.637-1.438-4.656V54.573c0-1.968,0.429-3.438,1.286-4.409
			c0.858-0.972,2.031-1.457,3.521-1.457c0.908,0,1.729,0.214,2.46,0.643c0.732,0.43,1.318,1.073,1.76,1.931
			C101.218,52.139,101.438,53.186,101.438,54.422z"/>
		<path stroke="#000000" stroke-miterlimit="10" d="M172.142,77.207c0,2.853-0.695,5.293-2.082,7.324
			c-1.388,2.031-3.438,3.571-6.15,4.617c-2.713,1.048-6.012,1.571-9.897,1.571c-3.709,0-6.89-0.567-9.538-1.703
			c-2.649-1.135-4.605-2.555-5.866-4.258c-1.263-1.704-1.893-3.413-1.893-5.129c0-1.136,0.403-2.106,1.21-2.915
			c0.808-0.807,1.83-1.211,3.066-1.211c1.085,0,1.917,0.265,2.498,0.795c0.58,0.53,1.136,1.274,1.665,2.233
			c1.06,1.842,2.327,3.217,3.804,4.126c1.477,0.908,3.488,1.362,6.038,1.362c2.068,0,3.765-0.46,5.091-1.382
			c1.325-0.921,1.986-1.974,1.986-3.16c0-1.817-0.688-3.142-2.063-3.975c-1.376-0.832-3.641-1.627-6.794-2.384
			c-3.559-0.884-6.453-1.811-8.687-2.782c-2.232-0.971-4.019-2.252-5.355-3.842c-1.338-1.59-2.007-3.545-2.007-5.866
			c0-2.069,0.618-4.025,1.855-5.867c1.235-1.842,3.059-3.312,5.469-4.409c2.409-1.099,5.318-1.646,8.725-1.646
			c2.673,0,5.078,0.277,7.21,0.832c2.133,0.556,3.911,1.301,5.338,2.233c1.425,0.934,2.51,1.968,3.254,3.104
			s1.117,2.246,1.117,3.331c0,1.187-0.397,2.157-1.192,2.915c-0.796,0.756-1.925,1.135-3.388,1.135c-1.06,0-1.963-0.303-2.706-0.908
			c-0.745-0.605-1.597-1.515-2.556-2.726c-0.781-1.009-1.703-1.816-2.762-2.422c-1.061-0.606-2.499-0.908-4.315-0.908
			c-1.868,0-3.419,0.396-4.655,1.191s-1.855,1.785-1.855,2.972c0,1.085,0.455,1.975,1.363,2.668
			c0.908,0.694,2.131,1.269,3.671,1.723c1.539,0.454,3.659,1.01,6.358,1.665c3.205,0.782,5.823,1.717,7.854,2.801
			c2.03,1.086,3.57,2.366,4.617,3.842C171.618,73.63,172.142,75.315,172.142,77.207z"/>
		<path stroke="#000000" stroke-miterlimit="10" d="M181.452,49.614h1.136v-6.207c0-1.665,0.044-2.971,0.132-3.917
			s0.334-1.76,0.738-2.441c0.403-0.706,0.984-1.28,1.742-1.722c0.757-0.441,1.602-0.663,2.535-0.663
			c1.312,0,2.499,0.492,3.559,1.477c0.706,0.656,1.154,1.457,1.343,2.403c0.189,0.946,0.284,2.29,0.284,4.031v7.039h3.785
			c1.463,0,2.58,0.349,3.35,1.041c0.769,0.694,1.154,1.584,1.154,2.669c0,1.389-0.549,2.359-1.646,2.915
			c-1.097,0.555-2.668,0.832-4.712,0.832h-1.931v19.001c0,1.615,0.057,2.857,0.17,3.728c0.114,0.87,0.416,1.578,0.908,2.12
			c0.492,0.543,1.293,0.813,2.404,0.813c0.605,0,1.425-0.107,2.459-0.321c1.035-0.214,1.843-0.322,2.424-0.322
			c0.832,0,1.583,0.335,2.251,1.003c0.669,0.67,1.005,1.495,1.005,2.479c0,1.665-0.91,2.939-2.727,3.822
			c-1.816,0.884-4.428,1.325-7.835,1.325c-3.229,0-5.677-0.543-7.343-1.627c-1.665-1.085-2.756-2.587-3.274-4.505
			c-0.517-1.917-0.775-4.479-0.775-7.683V57.071h-1.362c-1.489,0-2.625-0.353-3.406-1.06c-0.783-0.706-1.173-1.602-1.173-2.688
			c0-1.085,0.409-1.975,1.229-2.669C178.694,49.963,179.888,49.614,181.452,49.614z"/>
		<path stroke="#000000" stroke-miterlimit="10" d="M237.167,72.249h-20.212c0.024,2.347,0.498,4.416,1.419,6.208
			c0.922,1.791,2.145,3.141,3.672,4.05c1.527,0.907,3.211,1.362,5.053,1.362c1.236,0,2.366-0.145,3.389-0.435
			c1.021-0.291,2.012-0.744,2.971-1.363c0.958-0.618,1.842-1.281,2.649-1.987s1.854-1.665,3.142-2.877
			c0.529-0.454,1.287-0.681,2.271-0.681c1.059,0,1.917,0.29,2.573,0.87c0.656,0.581,0.984,1.4,0.984,2.461
			c0,0.933-0.366,2.024-1.099,3.273s-1.835,2.448-3.312,3.596c-1.477,1.148-3.33,2.102-5.563,2.857
			c-2.232,0.757-4.802,1.136-7.703,1.136c-6.637,0-11.796-1.892-15.479-5.677c-3.685-3.785-5.526-8.92-5.526-15.405
			c0-3.053,0.453-5.886,1.363-8.497c0.908-2.611,2.232-4.852,3.974-6.719c1.741-1.866,3.886-3.299,6.435-4.296
			c2.548-0.997,5.374-1.495,8.479-1.495c4.037,0,7.5,0.852,10.389,2.555c2.89,1.704,5.053,3.905,6.491,6.605
			s2.158,5.449,2.158,8.251c0,2.599-0.744,4.283-2.233,5.053C241.961,71.865,239.866,72.249,237.167,72.249z M216.955,66.382h18.736
			c-0.253-3.531-1.206-6.175-2.858-7.929s-3.828-2.631-6.528-2.631c-2.573,0-4.688,0.89-6.34,2.669
			C218.313,60.27,217.308,62.9,216.955,66.382z"/>
		<path stroke="#000000" stroke-miterlimit="10" d="M263.775,54.422v1.249c1.816-2.396,3.804-4.157,5.961-5.28
			c2.157-1.122,4.638-1.684,7.438-1.684c2.725,0,5.159,0.593,7.304,1.778c2.145,1.187,3.748,2.864,4.809,5.034
			c0.681,1.262,1.121,2.624,1.324,4.088c0.201,1.464,0.302,3.331,0.302,5.602v19.228c0,2.069-0.473,3.634-1.419,4.693
			c-0.945,1.06-2.176,1.59-3.69,1.59c-1.539,0-2.789-0.543-3.747-1.627c-0.959-1.085-1.438-2.637-1.438-4.656V67.216
			c0-3.407-0.473-6.013-1.419-7.816s-2.832-2.706-5.659-2.706c-1.842,0-3.52,0.548-5.033,1.646
			c-1.514,1.099-2.625,2.605-3.331,4.523c-0.505,1.539-0.757,4.416-0.757,8.63v12.944c0,2.095-0.486,3.666-1.457,4.712
			c-0.972,1.048-2.228,1.571-3.767,1.571c-1.489,0-2.713-0.543-3.671-1.627c-0.959-1.085-1.438-2.637-1.438-4.656V54.573
			c0-1.968,0.429-3.438,1.287-4.409c0.857-0.972,2.03-1.457,3.521-1.457c0.908,0,1.727,0.214,2.459,0.643
			c0.731,0.43,1.318,1.073,1.761,1.931C263.555,52.139,263.775,53.186,263.775,54.422z"/>
	</g>
	<g>
		<path fill="#FF0000" d="M8.187,77.528c-3.177,0-5.752-2.575-5.752-5.754c0-10.526,8.112-20.227,24.114-28.831
			c13.973-7.514,33.813-14.221,58.973-19.938C136.618,11.395,204.522,5,276.728,5c3.178,0,5.753,2.576,5.753,5.754
			c0,3.177-2.575,5.753-5.753,5.753c-71.373,0-138.372,6.293-188.657,17.719C33.415,46.646,13.94,61.767,13.94,71.774
			C13.94,74.953,11.365,77.528,8.187,77.528z"/>
		<path fill="#FF0000" d="M491.812,83.343c-58.061,0-112.692-7.041-153.831-19.824c-20.357-6.326-36.431-13.763-47.772-22.102
			c-12.763-9.385-19.234-19.701-19.234-30.663c0-3.178,2.576-5.754,5.754-5.754s5.753,2.576,5.753,5.754
			c0,7.099,4.894,14.296,14.544,21.392c10.31,7.581,25.238,14.439,44.371,20.385c40.063,12.448,93.481,19.305,150.416,19.305
			c3.178,0,5.754,2.576,5.754,5.754S494.989,83.343,491.812,83.343z"/>
	</g>
	<g>
		<path d="M228.715,124.659V99.86h8.907c3.19,0,5.618,0.585,7.281,1.754c1.663,1.17,2.496,2.867,2.496,5.093
			c0,1.284-0.297,2.379-0.886,3.288c-0.591,0.908-1.459,1.577-2.606,2.01c1.295,0.34,2.287,0.977,2.981,1.907
			c0.692,0.932,1.038,2.066,1.038,3.406c0,2.43-0.769,4.256-2.308,5.476c-1.538,1.221-3.817,1.842-6.839,1.865H228.715z
			 M234.692,110.199h3.117c1.306-0.012,2.237-0.251,2.793-0.718c0.557-0.467,0.834-1.156,0.834-2.067c0-1.048-0.3-1.802-0.9-2.263
			c-0.604-0.462-1.574-0.692-2.914-0.692h-2.93V110.199z M234.692,114.116v5.944h3.918c1.078,0,1.908-0.247,2.486-0.74
			c0.579-0.495,0.869-1.189,0.869-2.087c0-2.066-1.028-3.106-3.084-3.117H234.692z"/>
		<path d="M259.329,124.659h-5.963V99.86h5.963V124.659z"/>
		<path d="M273.08,99.86l5.536,17.254l5.518-17.254h7.869v24.799h-5.995v-5.79l0.579-11.855l-5.995,17.646h-3.952l-6.013-17.663
			l0.58,11.873v5.79h-5.979V99.86H273.08z"/>
		<path d="M313.931,118.715c0-1.056-0.246-1.95-0.741-2.682c-0.493-0.732-1.271-1.38-2.333-1.942s-2.666-1.139-4.812-1.729
			c-2.146-0.591-3.756-1.187-4.829-1.789c-1.072-0.602-1.859-1.3-2.358-2.095c-0.5-0.795-0.75-1.76-0.75-2.896
			c0-1.806,0.761-3.267,2.283-4.386c1.521-1.118,3.501-1.678,5.943-1.678c1.591,0,3.018,0.31,4.284,0.929
			c1.266,0.618,2.244,1.487,2.938,2.606c0.692,1.117,1.038,2.382,1.038,3.789h-0.92c0-1.852-0.681-3.381-2.044-4.591
			c-1.361-1.209-3.128-1.813-5.297-1.813c-2.18,0-3.943,0.485-5.288,1.456c-1.346,0.971-2.019,2.188-2.019,3.653
			c0,1.488,0.585,2.686,1.755,3.594c1.169,0.909,3.1,1.712,5.791,2.41c2.69,0.698,4.66,1.508,5.91,2.428
			c1.589,1.169,2.385,2.736,2.385,4.7c0,1.25-0.354,2.354-1.057,3.313c-0.704,0.959-1.703,1.7-2.998,2.223
			c-1.294,0.521-2.747,0.783-4.359,0.783c-1.795,0-3.407-0.298-4.838-0.895c-1.431-0.596-2.507-1.444-3.228-2.546
			s-1.081-2.402-1.081-3.9h0.92c0,2.032,0.76,3.61,2.281,4.735c1.522,1.124,3.504,1.686,5.945,1.686c2.169,0,3.957-0.496,5.364-1.49
			C313.226,121.597,313.931,120.305,313.931,118.715z"/>
		<path d="M339.01,114.116c0,2.146-0.384,4.045-1.149,5.697c-0.768,1.652-1.86,2.93-3.279,3.832
			c-1.42,0.903-3.055,1.354-4.905,1.354c-2.794,0-5.054-0.994-6.779-2.98c-1.727-1.987-2.589-4.667-2.589-8.039v-3.577
			c0-2.135,0.383-4.031,1.149-5.689c0.767-1.657,1.862-2.938,3.287-3.841c1.425-0.902,3.058-1.354,4.897-1.354
			c1.851,0,3.488,0.451,4.914,1.354c1.425,0.903,2.522,2.187,3.295,3.85c0.772,1.664,1.159,3.557,1.159,5.681V114.116z
			 M338.09,110.369c0-2.998-0.761-5.401-2.283-7.213c-1.521-1.812-3.576-2.717-6.165-2.717c-2.555,0-4.594,0.899-6.115,2.7
			c-1.521,1.799-2.281,4.249-2.281,7.349v3.628c0,1.976,0.342,3.722,1.03,5.237c0.687,1.517,1.666,2.683,2.938,3.5
			s2.759,1.227,4.463,1.227c2.589,0,4.638-0.902,6.148-2.708s2.266-4.27,2.266-7.392V110.369z"/>
		<path d="M347.361,123.739h12.724v0.92h-13.66V99.86h0.937V123.739z"/>
		<path d="M381.944,99.86v16.794c0,2.623-0.762,4.67-2.282,6.14c-1.521,1.472-3.583,2.206-6.183,2.206
			c-2.601,0-4.661-0.734-6.184-2.206c-1.521-1.47-2.287-3.493-2.299-6.071V99.86h0.92v16.76c0,2.294,0.69,4.11,2.069,5.45
			c1.38,1.341,3.211,2.01,5.493,2.01s4.109-0.669,5.484-2.01c1.374-1.34,2.061-3.162,2.061-5.467V99.86H381.944z"/>
		<path d="M406.75,100.78h-9.026v23.879h-0.921V100.78h-9.026v-0.92h18.974V100.78z"/>
		<path d="M414.438,124.659h-0.92V99.86h0.92V124.659z"/>
		<path d="M441.238,114.116c0,2.146-0.384,4.045-1.149,5.697c-0.768,1.652-1.86,2.93-3.279,3.832
			c-1.419,0.903-3.055,1.354-4.905,1.354c-2.794,0-5.054-0.994-6.779-2.98c-1.727-1.987-2.589-4.667-2.589-8.039v-3.577
			c0-2.135,0.383-4.031,1.149-5.689c0.767-1.657,1.862-2.938,3.287-3.841c1.425-0.902,3.058-1.354,4.897-1.354
			c1.851,0,3.488,0.451,4.914,1.354c1.425,0.903,2.522,2.187,3.295,3.85c0.772,1.664,1.159,3.557,1.159,5.681V114.116z
			 M440.318,110.369c0-2.998-0.761-5.401-2.283-7.213c-1.521-1.812-3.576-2.717-6.165-2.717c-2.555,0-4.594,0.899-6.115,2.7
			c-1.521,1.799-2.282,4.249-2.282,7.349v3.628c0,1.976,0.345,3.722,1.031,5.237c0.687,1.517,1.665,2.683,2.938,3.5
			c1.271,0.817,2.76,1.227,4.463,1.227c2.589,0,4.638-0.902,6.148-2.708c1.51-1.806,2.266-4.27,2.266-7.392V110.369z"/>
		<path d="M466.521,124.659h-0.92l-16.011-23.232v23.232h-0.937V99.86h0.937l16.011,23.181V99.86h0.92V124.659z"/>
		<path d="M489.93,118.715c0-1.056-0.246-1.95-0.741-2.682c-0.493-0.732-1.272-1.38-2.333-1.942
			c-1.062-0.563-2.666-1.139-4.812-1.729c-2.146-0.591-3.756-1.187-4.828-1.789c-1.073-0.602-1.859-1.3-2.359-2.095
			c-0.501-0.795-0.75-1.76-0.75-2.896c0-1.806,0.761-3.267,2.282-4.386c1.522-1.118,3.504-1.678,5.944-1.678
			c1.59,0,3.018,0.31,4.283,0.929c1.266,0.618,2.246,1.487,2.938,2.606c0.692,1.117,1.039,2.382,1.039,3.789h-0.92
			c0-1.852-0.681-3.381-2.044-4.591c-1.362-1.209-3.127-1.813-5.297-1.813c-2.18,0-3.943,0.485-5.288,1.456
			c-1.346,0.971-2.019,2.188-2.019,3.653c0,1.488,0.585,2.686,1.755,3.594c1.169,0.909,3.1,1.712,5.79,2.41
			c2.691,0.698,4.662,1.508,5.911,2.428c1.589,1.169,2.385,2.736,2.385,4.7c0,1.25-0.353,2.354-1.058,3.313
			c-0.703,0.959-1.702,1.7-2.997,2.223c-1.294,0.521-2.747,0.783-4.359,0.783c-1.796,0-3.407-0.298-4.838-0.895
			c-1.431-0.596-2.507-1.444-3.228-2.546c-0.722-1.102-1.081-2.402-1.081-3.9h0.92c0,2.032,0.761,3.61,2.281,4.735
			c1.521,1.124,3.503,1.686,5.945,1.686c2.168,0,3.957-0.496,5.364-1.49C489.226,121.597,489.93,120.305,489.93,118.715z"/>
	</g>
</g>
</svg>
